<svg width="228" height="69" viewBox="0 0 228 69" fill="none" xmlns="http://www.w3.org/2000/svg">
<path fill-rule="evenodd" clip-rule="evenodd" d="M199.669 19.197L181.952 20.5996V23.2713L180.84 20.9165L165.233 21.5052L164.402 25.3527C162.182 23.9501 159.569 23.0445 156.516 22.5925C154.572 22.3657 152.071 22.2757 148.906 22.5008L142.351 22.8643L139.02 23.2713L125.578 23.0445L125.801 26.44L123.912 23.4064L110.304 23.6332L109.75 33.7295H109.028L109.583 28.2511C106.086 24.6288 102.085 22.274 97.5312 21.2784C90.4218 19.6941 84.8684 19.6941 80.7014 21.2784C77.8143 22.4108 76.1459 23.0895 75.8146 23.4965L74.4795 19.3322L57.7622 16.2536C54.1513 13.1283 50.5976 11.092 47.2096 10.0513C43.7664 9.05567 38.6567 8.10345 31.9911 7.19949L31.9339 10.595C27.2147 7.10781 22.6592 4.70798 18.2161 3.39547C11.1068 1.22083 6.44081 0.180147 4.33069 0.180147L0 0L4.44309 29.9722L9.16425 30.5609L14.4396 66.4184C17.1058 66.4184 19.7721 65.8313 22.4935 64.5172C25.1598 63.2481 27.1023 62.2074 28.4926 61.2118L28.3269 67.0956L46.8231 66.7787L48.3238 68.318L56.0978 66.1916L66.9856 66.3267L67.3741 63.8352L68.652 66.9605L80.3169 66.3251C83.0364 67.9111 86.7025 68.5898 91.4256 68.3164C94.5908 68.0896 97.0914 67.5459 98.9235 66.7337C100.034 66.2817 101.146 65.4212 102.367 64.2888L104.311 62.4761L105.589 62.7929L105.812 68.4547L125.584 68.5432L126.14 67.6392L126.917 69L141.802 68.8182L141.968 67.3224L162.519 67.1872L172.514 68.2263L173.293 65.6463L174.57 67.3208L191.956 65.9632L192.175 68.5432L222.723 67.4124L228 42.0566L218.56 43.0989L224.722 13.1251L201.951 17.4261L199.119 33.5912L199.669 19.197Z" fill="white"/>
<path fill-rule="evenodd" clip-rule="evenodd" d="M203.822 18.7122L193 67L221.759 65.9738L227 43.3033L217.086 44.7345L223.069 15L203.822 18.7122Z" fill="black"/>
<path fill-rule="evenodd" clip-rule="evenodd" d="M215.076 46.9356L220.278 17L206.146 19.8205L197 66L220.111 64.8605L224 45.5731L215.076 46.9356Z" fill="#C6272D"/>
<path fill-rule="evenodd" clip-rule="evenodd" d="M183.425 22.3471L181 63L204.689 59.9488L207 42.3141L197.074 44.2446L197.977 21L183.425 22.3471Z" fill="black"/>
<path fill-rule="evenodd" clip-rule="evenodd" d="M195.308 46.0545L196.255 22L186.676 22.9199L184 61L203.493 59.0246L205 44.3063L195.308 46.0545Z" fill="#C6272D"/>
<path fill-rule="evenodd" clip-rule="evenodd" d="M166.605 22.3184L157 65.3087L171.943 67L174.133 55.6111L175.593 66.0869L192 64.7125L180.371 22L166.605 22.3184Z" fill="black"/>
<path fill-rule="evenodd" clip-rule="evenodd" d="M173.611 34.8057L171.437 44.0677H174.171L173.611 34.8057ZM159 64.0451L168.316 24.4533L178.131 24L188 63.1386L176.959 63.8628L174.894 52.5119L171.661 52.6942L169.429 65L159 64.0451Z" fill="#C6272D"/>
<path fill-rule="evenodd" clip-rule="evenodd" d="M138.223 24.3128L138 40.3954L140.448 42.3822L142.396 65.6932C151.354 66.0094 156.92 66.1009 158.979 65.8746C160.536 65.6483 162.431 65.016 164.377 63.8877C166.491 62.6215 167.714 61.4018 167.997 60.1355C168.428 58.7332 168.615 57.2886 168.552 55.844C168.439 54.2648 167.997 52.9986 167.216 52.0035L164.264 47.8469C167.159 45.2293 168.884 43.2858 169.386 42.0629C169.717 41.071 169.941 39.4437 170 36.9609C170 34.3851 169.83 32.6678 169.386 31.6744C168.718 30.23 167.714 28.9638 166.38 27.6991C164.543 25.9369 162.431 24.7622 160.091 24.1298C157.701 23.4526 155.474 23.0915 153.415 23L148.241 23.2263L138.223 24.3128Z" fill="black"/>
<path fill-rule="evenodd" clip-rule="evenodd" d="M165.468 29.7316C168.302 32.1271 168.8 36.1845 166.745 41.8072C166.026 43.8833 163.805 45.7729 159.975 47.384L163.417 50.703C164.416 51.7165 165.084 52.6383 165.468 53.3768C166.026 54.5278 166.304 55.8656 166.191 57.3867C166.079 59.0912 165.248 60.7023 163.527 62.2251C161.863 63.6987 160.198 64.5272 158.533 64.7581C156.369 65.0806 151.65 65.0806 144.382 64.7581L142.885 41.8055L140.388 39.8702L140 25.8117L151.489 25.0275C154.539 24.8916 157.203 25.26 159.534 26.136C161.364 26.8286 163.307 27.9796 165.468 29.7316ZM150.378 33.3256L151.099 41.8055C153.041 40.4236 153.875 38.7191 153.818 36.6446C153.705 34.57 152.484 33.4189 150.378 33.3256ZM152.708 58.9978C154.096 58.4002 154.651 57.6126 154.539 56.6024C154.429 55.6789 153.595 54.8504 152.208 54.0186L152.708 58.9978Z" fill="#C6272D"/>
<path fill-rule="evenodd" clip-rule="evenodd" d="M111.42 24L107 66.6832L125.246 66.8183L125.417 64.1956L127.796 67H141V24.1367L127.57 24L127.003 30.3822L122.754 24.1367L111.42 24Z" fill="black"/>
<path fill-rule="evenodd" clip-rule="evenodd" d="M129.649 26.4558H137.291L138 65.7721L128.886 66L123.919 57.6168L122.99 65.4514L110 65.178L113.874 26H121.517L128.721 38.5992L129.649 26.4558Z" fill="#F4E544"/>
<path fill-rule="evenodd" clip-rule="evenodd" d="M107.064 38.98L108.171 28.5644C104.185 24.7898 99.7568 22.5147 95.0516 21.6988C91.453 21.0153 88.3535 20.8343 85.6413 21.151C82.9841 21.5162 80.2168 22.3806 77.3375 23.7896C74.8474 25.1534 72.9095 26.7013 71.7479 28.3382C70.9166 29.4757 70.0872 31.3856 69.1458 33.9774C68.2285 36.7308 67.6161 39.5468 67.316 42.391C66.8207 46.0298 66.9308 49.2146 67.485 51.9438C67.9272 54.7181 68.7566 56.8575 69.8651 58.3085C70.8045 59.4913 72.3552 60.8582 74.5702 62.4046C76.7656 63.8355 79.2342 64.9575 81.8756 65.7251C84.7529 66.5427 87.5222 67 90.1794 67C92.6695 67 94.7725 66.6332 96.5453 65.9529C97.7638 65.4989 99.1495 64.7249 100.529 63.589C102.046 62.4101 103.401 61.0977 104.57 59.6755C106.121 57.6266 107.172 55.6262 107.616 53.7616C108.279 51.0793 108.723 46.3045 109 39.4357L107.064 38.98Z" fill="black"/>
<path fill-rule="evenodd" clip-rule="evenodd" d="M105.669 28.8636C99.7368 24.9243 94.4696 23 89.8696 23C84.6024 23 79.78 24.4774 75.3454 27.3878C73.7923 28.5058 72.4067 30.3872 71.2985 33.0717C70.0781 35.8024 69.4148 39.1596 69.1373 43.056C68.8026 47.8461 69.0802 51.4705 69.9659 54.0231C71.1863 57.6045 73.8475 60.2875 78.0046 62.1704C82.1065 64.0057 85.8778 64.9901 89.3677 64.9901C92.0859 65.0808 94.3023 64.5432 96.0206 63.5111L100.567 60.6008C102.341 59.1694 103.504 57.6936 104.171 55.9442C105.169 53.3503 105.669 51.6487 105.669 50.8869L106 40.7229L86.5982 39.1119L86.8207 46.0506L95.4695 46.7679C96.8552 50.079 95.1368 51.3338 90.2022 50.5736C86.4329 50.079 83.8269 49.1852 82.6616 47.8875C81.2759 46.4991 80.8881 44.263 81.5534 41.173C82.5514 36.2031 85.4901 33.7429 90.2022 33.8764C93.6389 33.9671 95.8572 35.5336 96.9654 38.4424L103.786 39.2487L105.669 28.8636Z" fill="#F4E544"/>
<path fill-rule="evenodd" clip-rule="evenodd" d="M69.5739 66L85 64.9217L72.855 20.7835L58.3574 18L49 64.7877L65.8519 65.2359L66.2346 56.1199L69.5739 66Z" fill="black"/>
<path fill-rule="evenodd" clip-rule="evenodd" d="M67.6411 52.3348L64.6204 52.5156L62.9674 60.8929L51 61.5217L59.5482 20L71.1737 22.1151L82 63.2336L71.1737 64L67.6411 52.3348Z" fill="#F4E544"/>
<path fill-rule="evenodd" clip-rule="evenodd" d="M65.7256 36.5661L64.7856 43.3087H67L65.7256 36.5661ZM41.6326 9.5505C39.4712 9.00508 36.8124 8.54705 33.3787 8L30 66.0872L48.0575 65.8153L49.1647 67L65.7256 61.7594L54.8148 46.4971C60.2427 42.4881 63.1238 37.4773 63.5092 31.4631C63.8416 24.9487 60.518 19.2533 53.5404 14.3331C50.6613 12.3294 46.673 10.7336 41.6326 9.5505Z" fill="black"/>
<path fill-rule="evenodd" clip-rule="evenodd" d="M60.0181 30.8797C59.9087 36.9303 56.7716 41.7963 50.6618 45.4842L62 60.9501L49.5594 65L44.4953 54.5811L44.3311 64.2243L32 64.5427L35.137 10C36.2374 10.4089 37.6154 10.7725 39.265 11.0909C42.402 11.6823 45.4862 12.7296 48.6252 14.3214C51.5297 15.7615 54.026 17.701 55.9449 20.0084C58.6969 23.1904 60.0728 26.8315 60.0181 30.8797Z" fill="#F4E544"/>
<path fill-rule="evenodd" clip-rule="evenodd" d="M46.707 30.9635L46.1611 37.7524C47.9072 37.3906 48.8887 36.3953 48.9971 34.8098C49.0513 33.1359 48.3428 31.8688 46.707 30.9635ZM20.9193 5.16471C15.0845 2.8106 8.8162 1.45346 2 1L6.25311 28.7026L10.8876 29.2895L15.9034 65C26.5352 62.6475 33.4598 57.9875 36.7857 50.9702C39.4572 45.5834 40.9846 40.9202 41.5285 36.9372C42.1766 32.7706 41.7112 28.5366 40.1657 24.5363C38.6383 20.4166 36.0752 16.6137 32.6429 13.1742C29.0964 9.60119 25.1704 6.88367 20.9193 5.16471Z" fill="black"/>
<path fill-rule="evenodd" clip-rule="evenodd" d="M31.4943 14.8896C34.4412 17.8403 36.5406 21.3811 37.7303 25.3733C39.3748 30.6829 39.4312 36.4471 37.845 42.5725C35.5765 51.6953 28.9439 58.2335 18.0018 62L13.0118 27.5065L8.08016 26.9163L4 3C7.11799 3 10.8016 3.59013 15.1676 4.81553C21.2889 6.53916 26.6754 9.94288 31.4943 14.8896Z" fill="#F4E544"/>
<path fill-rule="evenodd" clip-rule="evenodd" d="M21 29L22.8846 41.8135C26.7621 40.1938 28.5917 37.7659 28.4795 34.6193C28.4245 32.0125 25.93 30.1229 21 29ZM107.933 35.9242C112.366 35.9242 116.133 37.1829 119.29 39.745C122.393 42.2655 124 45.3658 124 48.9629C124 52.56 122.393 55.6172 119.29 58.1809C116.133 60.695 112.364 62 107.933 62C103.389 62 99.6237 60.6966 96.4642 58.1809C93.3068 55.6172 91.7526 52.5584 91.7526 48.9629C91.7526 45.3674 93.3048 42.2655 96.4642 39.745C99.6237 37.1829 103.389 35.9242 107.933 35.9242Z" fill="black"/>
<path fill-rule="evenodd" clip-rule="evenodd" d="M94 48.4992C94 45.3269 95.4054 42.5649 98.1044 40.3569C100.803 38.1489 104.177 37 108.056 37C111.879 37 115.253 38.1489 117.952 40.3569C120.706 42.5665 122 45.3269 122 48.4992C122 51.6273 120.708 54.3893 117.952 56.594C115.253 58.8511 111.879 60 108.056 60C104.175 60 100.803 58.8511 98.1044 56.594C95.4034 54.3877 94 51.6273 94 48.4992Z" fill="#E0913C"/>
<path fill-rule="evenodd" clip-rule="evenodd" d="M107.469 42L109.515 47.0203H116L110.743 50.0698L112.728 55L107.469 51.9472L102.212 55L104.257 50.0698L99 47.0203H105.425L107.469 42Z" fill="#CD3132"/>
</svg>
